<svg width="30" height="30" viewBox="0 0 30 30" fill="none" xmlns="http://www.w3.org/2000/svg">
<path d="M23.3932 21.0566C22.8079 20.0483 21.9377 17.1954 21.9377 13.4692C21.9377 11.2314 21.0488 9.0853 19.4665 7.50296C17.8841 5.92063 15.738 5.03168 13.5002 5.03168C11.2625 5.03168 9.11637 5.92063 7.53403 7.50296C5.95169 9.0853 5.06274 11.2314 5.06274 13.4692C5.06274 17.1964 4.19157 20.0483 3.60622 21.0566C3.45674 21.3129 3.37749 21.6042 3.37647 21.9009C3.37546 22.1976 3.4527 22.4894 3.60042 22.7467C3.74813 23.0041 3.9611 23.2179 4.21784 23.3667C4.47458 23.5155 4.76601 23.594 5.06274 23.5942H9.36692C9.56159 24.5467 10.0793 25.4028 10.8324 26.0176C11.5856 26.6324 12.528 26.9682 13.5002 26.9682C14.4725 26.9682 15.4149 26.6324 16.168 26.0176C16.9212 25.4028 17.4389 24.5467 17.6336 23.5942H21.9377C22.2344 23.5938 22.5257 23.5152 22.7823 23.3663C23.0389 23.2175 23.2517 23.0036 23.3993 22.7463C23.5469 22.4889 23.624 22.1973 23.623 21.9006C23.6219 21.604 23.5426 21.3129 23.3932 21.0566ZM13.5002 25.2817C12.9769 25.2815 12.4665 25.1192 12.0393 24.817C11.612 24.5148 11.289 24.0876 11.1145 23.5942H15.8859C15.7115 24.0876 15.3884 24.5148 14.9612 24.817C14.534 25.1192 14.0236 25.2815 13.5002 25.2817ZM5.06274 21.9067C5.87485 20.5103 6.75024 17.2745 6.75024 13.4692C6.75024 11.679 7.4614 9.96208 8.72727 8.69621C9.99314 7.43034 11.71 6.71918 13.5002 6.71918C15.2905 6.71918 17.0073 7.43034 18.2732 8.69621C19.5391 9.96208 20.2502 11.679 20.2502 13.4692C20.2502 17.2713 21.1235 20.5071 21.9377 21.9067H5.06274Z" fill="white"/>
<circle cx="26.4375" cy="3.0625" r="2.8125" fill="#FF5449"/>
</svg>
