<svg width="24" height="24" viewBox="0 0 24 24" fill="none" xmlns="http://www.w3.org/2000/svg">
<path d="M3.87217 12.5807L10.2684 18.9769C10.3828 19.0913 10.4428 19.2262 10.4483 19.3814C10.453 19.5366 10.3903 19.6789 10.2601 19.8083C10.1315 19.9337 9.99317 19.9976 9.845 20C9.69761 20.0015 9.55884 19.9376 9.4287 19.8083L2.27871 12.6583C2.17601 12.5548 2.10388 12.4498 2.06233 12.3431C2.02078 12.2365 2 12.1197 2 11.9927C2 11.8657 2.02078 11.7489 2.06233 11.6422C2.10388 11.5356 2.17601 11.431 2.27871 11.3283L9.4287 4.17709C9.53846 4.06733 9.67213 4.00853 9.82971 4.00069C9.98808 3.99285 10.1319 4.05165 10.2613 4.17709C10.3907 4.30645 10.4553 4.446 10.4553 4.59574C10.4553 4.74627 10.3907 4.88621 10.2613 5.01557L3.87099 11.4047L21.412 11.412C21.5798 11.412 21.7197 11.4681 21.8318 11.5802C21.9439 11.6923 22 11.8322 22 12C22 12.1678 21.9439 12.3077 21.8318 12.4198C21.7197 12.5319 21.5798 12.588 21.412 12.588L3.87217 12.5807Z" fill="#111111"/>
</svg>
