<svg width="24" height="24" viewBox="0 0 24 24" fill="none" xmlns="http://www.w3.org/2000/svg">
<path d="M11.0874 19.2942L4.4874 12.6942C4.3874 12.5942 4.3164 12.4859 4.2744 12.3692C4.23307 12.2526 4.2124 12.1276 4.2124 11.9942C4.2124 11.8609 4.23307 11.7359 4.2744 11.6192C4.3164 11.5026 4.3874 11.3942 4.4874 11.2942L11.0874 4.69422C11.2707 4.51089 11.4997 4.41489 11.7744 4.40622C12.0497 4.39822 12.2874 4.49422 12.4874 4.69422C12.6874 4.87756 12.7917 5.10656 12.8004 5.38122C12.8084 5.65656 12.7124 5.89422 12.5124 6.09422L7.6124 10.9942H18.7874C19.0707 10.9942 19.3084 11.0899 19.5004 11.2812C19.6917 11.4732 19.7874 11.7109 19.7874 11.9942C19.7874 12.2776 19.6917 12.5149 19.5004 12.7062C19.3084 12.8982 19.0707 12.9942 18.7874 12.9942H7.6124L12.5124 17.8942C12.6957 18.0776 12.7917 18.3109 12.8004 18.5942C12.8084 18.8776 12.7124 19.1109 12.5124 19.2942C12.3291 19.4942 12.0957 19.5942 11.8124 19.5942C11.5291 19.5942 11.2874 19.4942 11.0874 19.2942Z" fill="#111111"/>
</svg>
