<svg width="24" height="24" viewBox="0 0 24 24" fill="none" xmlns="http://www.w3.org/2000/svg">
<path d="M8.0496 5.28C7.70656 5.87392 7.70656 6.67093 7.70656 8.26667V10.8497C8.07349 10.8267 8.48651 10.8267 8.93109 10.8267H15.0154C15.4591 10.8267 15.873 10.8267 16.2399 10.8497V8.26667C16.2399 6.67093 16.2399 5.87392 15.8969 5.28C15.6722 4.89086 15.349 4.56772 14.9599 4.34304C14.366 4 13.569 4 11.9732 4C10.3775 4 9.58048 4 8.98656 4.34304C8.59742 4.56772 8.27428 4.89086 8.0496 5.28ZM7.06656 15.0857C6.63819 15.0686 6.37877 15.0106 6.20128 14.8169C5.94784 14.5404 5.98112 14.1564 6.04768 13.3875C6.09461 12.8329 6.20213 12.4591 6.44619 12.1801C6.88309 11.68 7.58539 11.68 8.99083 11.68H14.9556C16.3611 11.68 17.0634 11.68 17.5003 12.1801C17.7443 12.4582 17.8518 12.832 17.8996 13.3875C17.9653 14.1555 17.9986 14.5404 17.7452 14.8169C17.5677 15.0106 17.3083 15.0686 16.8799 15.0857V19.36C16.8799 19.5297 16.8125 19.6925 16.6924 19.8125C16.5724 19.9326 16.4096 20 16.2399 20C16.0702 20 15.9074 19.9326 15.7873 19.8125C15.6673 19.6925 15.5999 19.5297 15.5999 19.36V15.0933H8.34656V19.36C8.34656 19.5297 8.27913 19.6925 8.15911 19.8125C8.03908 19.9326 7.8763 20 7.70656 20C7.53682 20 7.37403 19.9326 7.25401 19.8125C7.13399 19.6925 7.06656 19.5297 7.06656 19.36V15.0857Z" fill="#555755"/>
</svg>
