<svg width="18" height="18" viewBox="0 0 18 18" fill="none" xmlns="http://www.w3.org/2000/svg">
<g clip-path="url(#clip0_5296_72232)">
<path d="M5.25 9C8.11542 10.1205 9.76093 10.0608 12.75 9M2.34882 8.82707L5.03406 4.1279C5.16759 3.89421 5.4161 3.75 5.68524 3.75H12.3148C12.5839 3.75 12.8324 3.89421 12.9659 4.1279L15.6512 8.82707C15.7159 8.94039 15.75 9.06865 15.75 9.19917V12.5729C15.75 12.6894 15.7229 12.8042 15.6708 12.9084L14.8323 14.5854C14.7053 14.8395 14.4456 15 14.1615 15H12.75C12.3358 15 12 14.6642 12 14.25V13.725C12 13.6007 11.8993 13.5 11.775 13.5H6.225C6.10074 13.5 6 13.6007 6 13.725V14.25C6 14.6642 5.66421 15 5.25 15H3.54057C3.21775 15 2.93114 14.7934 2.82906 14.4872L2.28849 12.8655C2.263 12.789 2.25 12.7089 2.25 12.6283V9.19917C2.25 9.06865 2.28406 8.94039 2.34882 8.82707Z" stroke="black" stroke-width="1.2" stroke-linecap="round"/>
</g>
<defs>
<clipPath id="clip0_5296_72232">
<rect width="18" height="18" fill="white"/>
</clipPath>
</defs>
</svg>
