<svg width="24" height="24" viewBox="0 0 24 24" fill="none" xmlns="http://www.w3.org/2000/svg">
<path fill-rule="evenodd" clip-rule="evenodd" d="M6.99987 19.4832C8.47991 20.4722 10.22 21 12 21C14.387 21 16.6761 20.0518 18.364 18.364C20.0518 16.6761 21 14.387 21 12C21 10.22 20.4722 8.47991 19.4832 6.99987C18.4943 5.51983 17.0887 4.36628 15.4442 3.68509C13.7996 3.0039 11.99 2.82567 10.2442 3.17294C8.49836 3.5202 6.89471 4.37737 5.63604 5.63604C4.37737 6.89471 3.5202 8.49836 3.17294 10.2442C2.82567 11.99 3.0039 13.7996 3.68509 15.4442C4.36628 17.0887 5.51983 18.4943 6.99987 19.4832ZM7.71418 5.58581C8.98278 4.73815 10.4743 4.28572 12 4.28572C14.046 4.28572 16.0081 5.09847 17.4548 6.54518C18.9015 7.99189 19.7143 9.95405 19.7143 12C19.7143 13.5257 19.2619 15.0172 18.4142 16.2858C17.5665 17.5544 16.3617 18.5432 14.9521 19.1271C13.5425 19.7109 11.9914 19.8637 10.495 19.5661C8.9986 19.2684 7.62404 18.5337 6.54518 17.4548C5.46632 16.376 4.7316 15.0014 4.43395 13.505C4.13629 12.0086 4.28906 10.4575 4.87293 9.04787C5.45681 7.63827 6.44557 6.43347 7.71418 5.58581ZM14.4985 15.4036C14.749 15.654 15.155 15.654 15.4054 15.4036C15.6557 15.1534 15.6559 14.7477 15.4059 14.4972L13.5853 12.6729C12.9826 12.0691 12.6441 11.2507 12.6441 10.3976V6.85704C12.6441 6.502 12.3563 6.21419 12.0013 6.21419C11.6462 6.21419 11.3584 6.502 11.3584 6.85704V10.775C11.3584 11.728 11.737 12.6421 12.4109 13.316L14.4985 15.4036Z" fill="#555755"/>
</svg>
