<svg width="26" height="24" viewBox="0 0 26 24" fill="none" xmlns="http://www.w3.org/2000/svg">
<path d="M10.9417 14.1297L9.74111 12.9291C10.0079 12.548 10.1413 12.1142 10.1413 11.6279C10.1413 11.1423 10.0079 10.709 9.74111 10.3278L10.9417 9.09868C11.5515 9.82284 11.8564 10.6613 11.8564 11.6142C11.8564 12.567 11.5515 13.4055 10.9417 14.1297ZM13.3714 16.588L12.1423 15.3588C13.0951 14.2916 13.5715 13.048 13.5715 11.6279C13.5715 10.2085 13.0951 8.96528 12.1423 7.89811L13.3714 6.66895C14.0003 7.37405 14.4767 8.15537 14.8007 9.01293C15.1246 9.87048 15.2866 10.7421 15.2866 11.6279C15.2866 12.5144 15.1246 13.3864 14.8007 14.244C14.4767 15.1016 14.0003 15.8829 13.3714 16.588ZM4.99598 12.7576C4.36711 12.7576 3.82857 12.5335 3.38035 12.0853C2.9329 11.6378 2.70917 11.0996 2.70917 10.4708C2.70917 9.84189 2.9329 9.30335 3.38035 8.85514C3.82857 8.40768 4.36711 8.18396 4.99598 8.18396C5.62486 8.18396 6.16302 8.40768 6.61047 8.85514C7.05869 9.30335 7.28279 9.84189 7.28279 10.4708C7.28279 11.0996 7.05869 11.6378 6.61047 12.0853C6.16302 12.5335 5.62486 12.7576 4.99598 12.7576ZM0.422363 17.3312V16.6737C0.422363 16.2164 0.546232 15.7971 0.79397 15.416C1.04171 15.0349 1.38473 14.749 1.82303 14.5584C2.31851 14.3488 2.82809 14.1868 3.35177 14.0725C3.87621 13.9582 4.42428 13.901 4.99598 13.901C5.56769 13.901 6.11576 13.9582 6.6402 14.0725C7.16388 14.1868 7.67346 14.3488 8.16893 14.5584C8.60724 14.749 8.95026 15.0349 9.198 15.416C9.44573 15.7971 9.5696 16.2164 9.5696 16.6737V17.3312H0.422363ZM21.0037 12.7576C20.3748 12.7576 19.8362 12.5335 19.388 12.0853C18.9406 11.6378 18.7168 11.0996 18.7168 10.4708C18.7168 9.84189 18.9406 9.30335 19.388 8.85514C19.8362 8.40768 20.3748 8.18396 21.0037 8.18396C21.6325 8.18396 22.1711 8.40768 22.6193 8.85514C23.0667 9.30335 23.2905 9.84189 23.2905 10.4708C23.2905 11.0996 23.0667 11.6378 22.6193 12.0853C22.1711 12.5335 21.6325 12.7576 21.0037 12.7576ZM16.43 17.3312V16.6737C16.43 16.2164 16.5539 15.7971 16.8016 15.416C17.0494 15.0349 17.3924 14.749 17.8307 14.5584C18.3262 14.3488 18.8358 14.1868 19.3594 14.0725C19.8839 13.9582 20.4319 13.901 21.0037 13.901C21.5754 13.901 22.1234 13.9582 22.6479 14.0725C23.1715 14.1868 23.6811 14.3488 24.1766 14.5584C24.6149 14.749 24.9579 15.0349 25.2057 15.416C25.4534 15.7971 25.5773 16.2164 25.5773 16.6737V17.3312H16.43Z" fill="#A0A0A0"/>
<path d="M10.9417 14.1297L9.74111 12.9291C10.0079 12.548 10.1413 12.1142 10.1413 11.6279C10.1413 11.1423 10.0079 10.709 9.74111 10.3278L10.9417 9.09868C11.5515 9.82284 11.8564 10.6613 11.8564 11.6142C11.8564 12.567 11.5515 13.4055 10.9417 14.1297ZM13.3714 16.588L12.1423 15.3588C13.0951 14.2916 13.5715 13.048 13.5715 11.6279C13.5715 10.2085 13.0951 8.96528 12.1423 7.89811L13.3714 6.66895C14.0003 7.37405 14.4767 8.15537 14.8007 9.01293C15.1246 9.87048 15.2866 10.7421 15.2866 11.6279C15.2866 12.5144 15.1246 13.3864 14.8007 14.244C14.4767 15.1016 14.0003 15.8829 13.3714 16.588ZM4.99598 12.7576C4.36711 12.7576 3.82857 12.5335 3.38035 12.0853C2.9329 11.6378 2.70917 11.0996 2.70917 10.4708C2.70917 9.84189 2.9329 9.30335 3.38035 8.85514C3.82857 8.40768 4.36711 8.18396 4.99598 8.18396C5.62486 8.18396 6.16302 8.40768 6.61047 8.85514C7.05869 9.30335 7.28279 9.84189 7.28279 10.4708C7.28279 11.0996 7.05869 11.6378 6.61047 12.0853C6.16302 12.5335 5.62486 12.7576 4.99598 12.7576ZM0.422363 17.3312V16.6737C0.422363 16.2164 0.546232 15.7971 0.79397 15.416C1.04171 15.0349 1.38473 14.749 1.82303 14.5584C2.31851 14.3488 2.82809 14.1868 3.35177 14.0725C3.87621 13.9582 4.42428 13.901 4.99598 13.901C5.56769 13.901 6.11576 13.9582 6.6402 14.0725C7.16388 14.1868 7.67346 14.3488 8.16893 14.5584C8.60724 14.749 8.95026 15.0349 9.198 15.416C9.44573 15.7971 9.5696 16.2164 9.5696 16.6737V17.3312H0.422363ZM21.0037 12.7576C20.3748 12.7576 19.8362 12.5335 19.388 12.0853C18.9406 11.6378 18.7168 11.0996 18.7168 10.4708C18.7168 9.84189 18.9406 9.30335 19.388 8.85514C19.8362 8.40768 20.3748 8.18396 21.0037 8.18396C21.6325 8.18396 22.1711 8.40768 22.6193 8.85514C23.0667 9.30335 23.2905 9.84189 23.2905 10.4708C23.2905 11.0996 23.0667 11.6378 22.6193 12.0853C22.1711 12.5335 21.6325 12.7576 21.0037 12.7576ZM16.43 17.3312V16.6737C16.43 16.2164 16.5539 15.7971 16.8016 15.416C17.0494 15.0349 17.3924 14.749 17.8307 14.5584C18.3262 14.3488 18.8358 14.1868 19.3594 14.0725C19.8839 13.9582 20.4319 13.901 21.0037 13.901C21.5754 13.901 22.1234 13.9582 22.6479 14.0725C23.1715 14.1868 23.6811 14.3488 24.1766 14.5584C24.6149 14.749 24.9579 15.0349 25.2057 15.416C25.4534 15.7971 25.5773 16.2164 25.5773 16.6737V17.3312H16.43Z" fill="black" fill-opacity="0.2"/>
</svg>
