<svg width="96" height="96" viewBox="0 0 96 96" fill="none" xmlns="http://www.w3.org/2000/svg">
<circle cx="48" cy="48" r="48" fill="#F4F8E1"/>
<path d="M38.0772 33.0009C35.5728 33.0448 33.6591 34.1062 32.4311 36.2529C29.2317 41.8506 26.0378 47.4519 22.8775 53.0715C20.7923 56.7766 22.5756 61.1557 26.6173 62.2153C28.859 62.8036 30.9218 62.3432 32.6715 60.7739C35.9623 57.8234 39.4506 57.6882 43.0115 60.3208C43.8966 60.9748 44.7967 61.7001 45.8122 62.0728C48.1508 62.9315 50.3291 62.44 52.2242 60.8323C53.6087 59.6576 55.118 58.6875 56.9777 58.5085C59.2921 58.2856 61.3157 59.0072 63.004 60.5985C65.4357 62.8913 69.3992 63.1708 71.8663 61.1904C73.6645 59.7453 74.3241 57.8216 73.8527 55.6347C73.3533 53.3237 71.8346 51.8073 69.4588 51.3013C67.2153 50.8226 65.281 51.4785 63.781 53.2104C63.3002 53.7658 62.9369 54.4162 62.458 54.9715C61.4424 56.1426 59.9722 56.3198 58.8094 55.4593C57.6169 54.5769 57.3895 53.2214 58.2374 51.8987C60.0877 49.0158 61.9977 46.1676 63.7959 43.2536C65.8252 39.967 64.627 35.8235 61.2002 33.9747C58.0585 32.2793 54.0745 33.3097 52.1646 36.3716C49.4608 40.7051 46.8073 45.066 44.1352 49.4177C43.6469 50.2142 43.0357 50.8646 42.0053 50.7788C40.4959 50.6545 39.7413 49.1035 40.5202 47.7643C41.4574 46.153 42.4078 44.5489 43.3805 42.9595C45.0967 40.1588 44.8544 36.9197 42.7097 34.7932C41.4425 33.5417 39.8754 32.9735 38.0772 33.0009Z" fill="#1DCC9A"/>
</svg>
