<svg width="24" height="24" viewBox="0 0 24 24" fill="none" xmlns="http://www.w3.org/2000/svg">
<path d="M14.5706 5.74135C15.0614 5.26178 15.7216 4.99507 16.4078 4.99907C17.0941 5.00306 17.7511 5.27745 18.2363 5.7627C18.7216 6.24796 18.996 6.90495 19 7.5912C19.004 8.27744 18.7372 8.93759 18.2577 9.42846L17.6713 10.0148L13.9842 6.32768L14.5706 5.74135ZM13.3646 6.94819L6.3541 13.9587C6.06731 14.246 5.8682 14.6089 5.78004 15.0051L5.01055 18.467C4.99445 18.539 4.99681 18.614 5.0174 18.6848C5.038 18.7557 5.07616 18.8202 5.12835 18.8724C5.18054 18.9246 5.24506 18.9628 5.31594 18.9834C5.38681 19.004 5.46174 19.0063 5.53377 18.9902L8.9746 18.2251C9.38459 18.1347 9.75998 17.9285 10.0561 17.6309L17.0517 10.6353L13.3646 6.94819Z" fill="#A0A0A0"/>
<path d="M14.5706 5.74135C15.0614 5.26178 15.7216 4.99507 16.4078 4.99907C17.0941 5.00306 17.7511 5.27745 18.2363 5.7627C18.7216 6.24796 18.996 6.90495 19 7.5912C19.004 8.27744 18.7372 8.93759 18.2577 9.42846L17.6713 10.0148L13.9842 6.32768L14.5706 5.74135ZM13.3646 6.94819L6.3541 13.9587C6.06731 14.246 5.8682 14.6089 5.78004 15.0051L5.01055 18.467C4.99445 18.539 4.99681 18.614 5.0174 18.6848C5.038 18.7557 5.07616 18.8202 5.12835 18.8724C5.18054 18.9246 5.24506 18.9628 5.31594 18.9834C5.38681 19.004 5.46174 19.0063 5.53377 18.9902L8.9746 18.2251C9.38459 18.1347 9.75998 17.9285 10.0561 17.6309L17.0517 10.6353L13.3646 6.94819Z" fill="black" fill-opacity="0.2"/>
</svg>
