<svg width="24" height="24" viewBox="0 0 24 24" fill="none" xmlns="http://www.w3.org/2000/svg">
<path fill-rule="evenodd" clip-rule="evenodd" d="M20.7869 11.0914C20.7869 15.007 17.0287 18.1818 12.3934 18.1818C11.1025 18.1866 9.82374 17.9318 8.63318 17.4327L4.52459 20L5.54754 15.1937C4.57285 14.0365 4 12.6201 4 11.0914C4 7.17482 7.75816 4 12.3934 4C17.0287 4 20.7869 7.17482 20.7869 11.0914ZM13.4417 11.3445C13.4417 11.8691 12.9171 12.3937 12.3925 12.3937C11.8679 12.3937 11.3444 11.8691 11.3444 11.3445C11.3444 10.8199 11.8679 10.2953 12.3925 10.2953C12.9171 10.2953 13.4417 10.8199 13.4417 11.3445ZM9.24498 11.3445C9.24498 11.8691 8.72039 12.3937 8.1958 12.3937C7.67121 12.3937 7.14767 11.8691 7.14767 11.3445C7.14767 10.8199 7.67121 10.2953 8.1958 10.2953C8.72039 10.2953 9.24498 10.8199 9.24498 11.3445ZM17.6395 11.3445C17.6395 11.8691 17.1138 12.3937 16.5892 12.3937H16.5903C16.0657 12.3937 15.5411 11.8691 15.5411 11.3445C15.5411 10.8199 16.0657 10.2953 16.5903 10.2953C17.1149 10.2953 17.6395 10.8199 17.6395 11.3445Z" fill="#555755"/>
</svg>
