<svg width="34" height="34" viewBox="0 0 34 34" fill="none" xmlns="http://www.w3.org/2000/svg">
<rect x="0.375" y="0.375" width="33.25" height="33.25" rx="16.625" fill="white"/>
<rect x="0.375" y="0.375" width="33.25" height="33.25" rx="16.625" stroke="#BBBDBB" stroke-width="0.75"/>
<path d="M11.75 17L11.75 11M11.75 17C10.9216 17 10.25 17.6716 10.25 18.5C10.25 19.3284 10.9216 20 11.75 20M11.75 17C12.5784 17 13.25 17.6716 13.25 18.5C13.25 19.3284 12.5784 20 11.75 20M11.75 23L11.75 20" stroke="#222222" stroke-width="1.5" stroke-linecap="round"/>
<path d="M17 13.25L17 11M17 13.25C16.1716 13.25 15.5 13.9216 15.5 14.75C15.5 15.5784 16.1716 16.25 17 16.25M17 13.25C17.8284 13.25 18.5 13.9216 18.5 14.75C18.5 15.5784 17.8284 16.25 17 16.25M17 23L17 16.25" stroke="#222222" stroke-width="1.5" stroke-linecap="round"/>
<path d="M22.25 23L22.25 20.75M22.25 20.75C23.0784 20.75 23.75 20.0784 23.75 19.25C23.75 18.4216 23.0784 17.75 22.25 17.75M22.25 20.75C21.4216 20.75 20.75 20.0784 20.75 19.25C20.75 18.4216 21.4216 17.75 22.25 17.75M22.25 17.75L22.25 11" stroke="#222222" stroke-width="1.5" stroke-linecap="round"/>
</svg>
