<svg width="74" height="74" viewBox="0 0 74 74" fill="none" xmlns="http://www.w3.org/2000/svg">
<g filter="url(#filter0_dd_3120_13816)">
<circle cx="37" cy="34" r="28" fill="white"/>
<path fill-rule="evenodd" clip-rule="evenodd" d="M44.2189 28.0197C44.5606 27.678 44.5606 27.124 44.2189 26.7823C43.8772 26.4406 43.3232 26.4406 42.9815 26.7823L37.0004 32.7633L31.0194 26.7823C30.6777 26.4406 30.1237 26.4406 29.782 26.7823C29.4403 27.124 29.4403 27.6781 29.782 28.0198L35.763 34.0008L29.7822 39.9816C29.4405 40.3233 29.4405 40.8773 29.7822 41.219C30.1239 41.5608 30.6779 41.5608 31.0196 41.219L37.0004 35.2382L42.9813 41.2191C43.323 41.5608 43.877 41.5608 44.2188 41.2191C44.5605 40.8774 44.5605 40.3234 44.2188 39.9817L38.2379 34.0008L44.2189 28.0197Z" fill="#1DCC9A"/>
</g>
<defs>
<filter id="filter0_dd_3120_13816" x="0.415798" y="0.537326" width="73.1684" height="73.1684" filterUnits="userSpaceOnUse" color-interpolation-filters="sRGB">
<feFlood flood-opacity="0" result="BackgroundImageFix"/>
<feColorMatrix in="SourceAlpha" type="matrix" values="0 0 0 0 0 0 0 0 0 0 0 0 0 0 0 0 0 0 127 0" result="hardAlpha"/>
<feOffset dy="0.780382"/>
<feGaussianBlur stdDeviation="1.17057"/>
<feColorMatrix type="matrix" values="0 0 0 0 0 0 0 0 0 0 0 0 0 0 0 0 0 0 0.3 0"/>
<feBlend mode="normal" in2="BackgroundImageFix" result="effect1_dropShadow_3120_13816"/>
<feColorMatrix in="SourceAlpha" type="matrix" values="0 0 0 0 0 0 0 0 0 0 0 0 0 0 0 0 0 0 127 0" result="hardAlpha"/>
<feMorphology radius="2.34115" operator="dilate" in="SourceAlpha" result="effect2_dropShadow_3120_13816"/>
<feOffset dy="3.12153"/>
<feGaussianBlur stdDeviation="3.12153"/>
<feColorMatrix type="matrix" values="0 0 0 0 0 0 0 0 0 0 0 0 0 0 0 0 0 0 0.15 0"/>
<feBlend mode="normal" in2="effect1_dropShadow_3120_13816" result="effect2_dropShadow_3120_13816"/>
<feBlend mode="normal" in="SourceGraphic" in2="effect2_dropShadow_3120_13816" result="shape"/>
</filter>
</defs>
</svg>
