<svg width="74" height="74" viewBox="0 0 74 74" fill="none" xmlns="http://www.w3.org/2000/svg">
<g filter="url(#filter0_dd_2389_22738)">
<circle cx="37" cy="34" r="28" fill="#1DCC9A"/>
<path fill-rule="evenodd" clip-rule="evenodd" d="M37.8757 24.6672C37.8757 24.184 37.4839 23.7922 37.0007 23.7922C36.5174 23.7922 36.1257 24.184 36.1257 24.6672V33.1257H27.6672C27.184 33.1257 26.7922 33.5175 26.7922 34.0007C26.7922 34.484 27.184 34.8757 27.6672 34.8757H36.1257V43.3339C36.1257 43.8172 36.5174 44.2089 37.0007 44.2089C37.4839 44.2089 37.8757 43.8172 37.8757 43.3339V34.8757H46.3339C46.8172 34.8757 47.2089 34.484 47.2089 34.0007C47.2089 33.5175 46.8172 33.1257 46.3339 33.1257H37.8757V24.6672Z" fill="white"/>
</g>
<defs>
<filter id="filter0_dd_2389_22738" x="0.415798" y="0.537326" width="73.1684" height="73.1684" filterUnits="userSpaceOnUse" color-interpolation-filters="sRGB">
<feFlood flood-opacity="0" result="BackgroundImageFix"/>
<feColorMatrix in="SourceAlpha" type="matrix" values="0 0 0 0 0 0 0 0 0 0 0 0 0 0 0 0 0 0 127 0" result="hardAlpha"/>
<feOffset dy="0.780382"/>
<feGaussianBlur stdDeviation="1.17057"/>
<feColorMatrix type="matrix" values="0 0 0 0 0 0 0 0 0 0 0 0 0 0 0 0 0 0 0.3 0"/>
<feBlend mode="normal" in2="BackgroundImageFix" result="effect1_dropShadow_2389_22738"/>
<feColorMatrix in="SourceAlpha" type="matrix" values="0 0 0 0 0 0 0 0 0 0 0 0 0 0 0 0 0 0 127 0" result="hardAlpha"/>
<feMorphology radius="2.34115" operator="dilate" in="SourceAlpha" result="effect2_dropShadow_2389_22738"/>
<feOffset dy="3.12153"/>
<feGaussianBlur stdDeviation="3.12153"/>
<feColorMatrix type="matrix" values="0 0 0 0 0 0 0 0 0 0 0 0 0 0 0 0 0 0 0.15 0"/>
<feBlend mode="normal" in2="effect1_dropShadow_2389_22738" result="effect2_dropShadow_2389_22738"/>
<feBlend mode="normal" in="SourceGraphic" in2="effect2_dropShadow_2389_22738" result="shape"/>
</filter>
</defs>
</svg>
