<svg width="24" height="25" viewBox="0 0 24 25" fill="none" xmlns="http://www.w3.org/2000/svg">
<path d="M18.8758 20.359C18.7937 20.3592 18.7124 20.3431 18.6366 20.3116C18.5607 20.2802 18.4919 20.234 18.434 20.1758L4.68398 6.42584C4.57172 6.30768 4.51006 6.15034 4.51215 5.98736C4.51423 5.82438 4.5799 5.66867 4.69515 5.55342C4.8104 5.43817 4.96612 5.3725 5.12909 5.37041C5.29207 5.36833 5.44941 5.42999 5.56758 5.54225L19.3176 19.2923C19.4049 19.3797 19.4644 19.491 19.4885 19.6122C19.5126 19.7334 19.5002 19.859 19.4529 19.9732C19.4056 20.0874 19.3256 20.1849 19.2229 20.2536C19.1201 20.3223 18.9994 20.359 18.8758 20.359ZM11.9875 17.859C10.3668 17.859 8.8039 17.3794 7.34219 16.4333C6.01133 15.5739 4.81328 14.343 3.87734 12.8786V12.8755C4.65625 11.7594 5.50937 10.8157 6.42578 10.0547C6.43407 10.0478 6.44083 10.0392 6.44564 10.0296C6.45045 10.0199 6.45319 10.0093 6.45371 9.99853C6.45422 9.98773 6.45249 9.97695 6.44862 9.96686C6.44476 9.95677 6.43884 9.94759 6.43125 9.93991L5.65312 9.16295C5.6393 9.14901 5.62073 9.14079 5.60111 9.13992C5.58149 9.13905 5.56227 9.1456 5.54726 9.15827C4.57383 9.97858 3.67031 10.9848 2.84883 12.163C2.70749 12.3658 2.62965 12.6061 2.6252 12.8533C2.62075 13.1005 2.68989 13.3434 2.82383 13.5512C3.85547 15.1657 5.1832 16.5255 6.66289 17.4829C8.3289 18.5622 10.1219 19.109 11.9875 19.109C12.9945 19.1059 13.9944 18.94 14.9484 18.6176C14.961 18.6134 14.9723 18.606 14.9812 18.5961C14.9902 18.5863 14.9964 18.5743 14.9994 18.5614C15.0024 18.5484 15.0021 18.5349 14.9984 18.5221C14.9948 18.5094 14.9879 18.4977 14.9785 18.4883L14.1355 17.6454C14.1161 17.6264 14.0921 17.6129 14.0659 17.606C14.0397 17.5992 14.0121 17.5993 13.9859 17.6063C13.3331 17.7744 12.6616 17.8593 11.9875 17.859ZM21.1742 12.1794C20.1406 10.5809 18.7996 9.22311 17.2965 8.25241C15.6336 7.17741 13.7977 6.60905 11.9875 6.60905C10.9912 6.61078 10.0022 6.78021 9.06211 7.11022C9.04958 7.11458 9.03837 7.12205 9.02953 7.13194C9.0207 7.14183 9.01452 7.15381 9.01159 7.16674C9.00866 7.17967 9.00907 7.19314 9.01278 7.20587C9.01649 7.21861 9.02339 7.23018 9.03281 7.23952L9.87461 8.08131C9.8942 8.10058 9.91853 8.11433 9.94514 8.12119C9.97175 8.12805 9.9997 8.12777 10.0262 8.12037C10.6656 7.94739 11.3251 7.85952 11.9875 7.85905C13.577 7.85905 15.1352 8.34459 16.6184 9.30436C17.9742 10.1794 19.1863 11.409 20.1246 12.859L20.1257 12.8622L20.1246 12.8653C19.4435 13.9375 18.5983 14.8962 17.6199 15.7063C17.6115 15.7132 17.6047 15.7218 17.5998 15.7315C17.5949 15.7412 17.5921 15.7518 17.5916 15.7626C17.591 15.7735 17.5927 15.7843 17.5966 15.7945C17.6005 15.8046 17.6064 15.8138 17.6141 15.8215L18.3914 16.5985C18.4052 16.6124 18.4236 16.6206 18.4432 16.6216C18.4627 16.6225 18.4818 16.6161 18.4969 16.6036C19.5414 15.7241 20.4456 14.6903 21.1781 13.538C21.3076 13.3349 21.3761 13.0989 21.3754 12.8581C21.3747 12.6172 21.3049 12.3817 21.1742 12.1794Z" fill="#111111" fill-opacity="0.4"/>
<path d="M12.0005 8.36475C11.6634 8.36461 11.3274 8.40235 10.9987 8.47725C10.9821 8.48069 10.9668 8.48858 10.9543 8.50006C10.9418 8.51154 10.9327 8.52619 10.9279 8.54244C10.9231 8.5587 10.9228 8.57595 10.927 8.59237C10.9312 8.60879 10.9398 8.62376 10.9519 8.63568L16.2295 13.9119C16.2414 13.924 16.2564 13.9326 16.2728 13.9368C16.2893 13.941 16.3065 13.9407 16.3228 13.9359C16.339 13.9311 16.3537 13.922 16.3652 13.9095C16.3766 13.897 16.3845 13.8817 16.388 13.8651C16.5382 13.206 16.5381 12.5216 16.3875 11.8626C16.237 11.2036 15.94 10.587 15.5184 10.0586C15.0969 9.53016 14.5618 9.10348 13.9527 8.81024C13.3437 8.517 12.6764 8.36473 12.0005 8.36475ZM7.7714 11.8176C7.75947 11.8055 7.74451 11.7969 7.72809 11.7927C7.71167 11.7885 7.69441 11.7888 7.67816 11.7936C7.6619 11.7984 7.64725 11.8075 7.63577 11.82C7.62429 11.8325 7.61641 11.8478 7.61296 11.8644C7.44297 12.6071 7.46431 13.3808 7.675 14.1129C7.88568 14.8451 8.27881 15.5118 8.81753 16.0505C9.35626 16.5892 10.0229 16.9823 10.7551 17.193C11.4873 17.4037 12.2609 17.4251 13.0036 17.2551C13.0202 17.2516 13.0355 17.2437 13.048 17.2322C13.0605 17.2208 13.0696 17.2061 13.0744 17.1899C13.0792 17.1736 13.0795 17.1564 13.0753 17.1399C13.0711 17.1235 13.0625 17.1085 13.0505 17.0966L7.7714 11.8176Z" fill="#111111" fill-opacity="0.4"/>
</svg>
