<svg width="24" height="24" viewBox="0 0 24 24" fill="none" xmlns="http://www.w3.org/2000/svg">
<path d="M6.57381 18.1044H9.28681V12.6783H14.7128V18.1044H17.4258V9.96534L11.9998 5.89583L6.57381 9.96534V18.1044ZM6.57381 19.913C6.07642 19.913 5.65078 19.7361 5.29689 19.3822C4.94239 19.0277 4.76514 18.6017 4.76514 18.1044V9.96534C4.76514 9.67896 4.82934 9.40766 4.95776 9.15143C5.08557 8.89521 5.26252 8.68419 5.4886 8.5184L10.9146 4.44889C11.0804 4.32831 11.2537 4.23788 11.4346 4.17759C11.6155 4.1173 11.8039 4.08716 11.9998 4.08716C12.1958 4.08716 12.3842 4.1173 12.565 4.17759C12.7459 4.23788 12.9192 4.32831 13.085 4.44889L18.511 8.5184C18.7371 8.68419 18.9144 8.89521 19.0428 9.15143C19.1706 9.40766 19.2345 9.67896 19.2345 9.96534V18.1044C19.2345 18.6017 19.0575 19.0277 18.7037 19.3822C18.3492 19.7361 17.9232 19.913 17.4258 19.913H12.9042V14.487H11.0955V19.913H6.57381Z" fill="#1DCC9A"/>
</svg>
