<svg width="16" height="15" viewBox="0 0 16 15" fill="none" xmlns="http://www.w3.org/2000/svg">
<path d="M4.47075 6.8735V13.2049C4.47075 13.4148 4.38812 13.6161 4.24103 13.7645C4.09394 13.913 3.89445 13.9964 3.68644 13.9964H2.11781C1.9098 13.9964 1.7103 13.913 1.56322 13.7645C1.41613 13.6161 1.3335 13.4148 1.3335 13.2049V7.66492C1.3335 7.45502 1.41613 7.25372 1.56322 7.1053C1.7103 6.95688 1.9098 6.8735 2.11781 6.8735H4.47075ZM4.47075 6.8735C5.3028 6.8735 6.10078 6.53997 6.68913 5.94628C7.27747 5.35259 7.60801 4.54738 7.60801 3.70778V2.91635C7.60801 2.49655 7.77327 2.09395 8.06745 1.7971C8.36162 1.50026 8.76061 1.3335 9.17663 1.3335C9.59266 1.3335 9.99165 1.50026 10.2858 1.7971C10.58 2.09395 10.7453 2.49655 10.7453 2.91635V6.8735H13.0982C13.5142 6.8735 13.9132 7.04026 14.2074 7.3371C14.5016 7.63395 14.6668 8.03655 14.6668 8.45635L13.8825 12.4135C13.7697 12.899 13.5557 13.3159 13.2728 13.6014C12.9899 13.8869 12.6534 14.0255 12.3139 13.9964H6.82369C6.19965 13.9964 5.60117 13.7462 5.15991 13.3009C4.71865 12.8557 4.47075 12.2518 4.47075 11.6221" stroke="#555755" stroke-width="1.5" stroke-linecap="round" stroke-linejoin="round"/>
</svg>
