<svg width="24" height="24" viewBox="0 0 24 24" fill="none" xmlns="http://www.w3.org/2000/svg">
<path d="M14 11C14 10.4696 13.7893 9.96086 13.4142 9.58579C13.0391 9.21071 12.5304 9 12 9C11.4696 9 10.9609 9.21071 10.5858 9.58579C10.2107 9.96086 10 10.4696 10 11C10 11.5304 10.2107 12.0391 10.5858 12.4142C10.9609 12.7893 11.4696 13 12 13C12.5304 13 13.0391 12.7893 13.4142 12.4142C13.7893 12.0391 14 11.5304 14 11ZM20 11C20 14.832 15.8707 19.0213 13.5453 21.0773C13.1201 21.457 12.5701 21.6669 12 21.6669C11.4299 21.6669 10.8799 21.457 10.4547 21.0773C8.12933 19.0213 4 14.832 4 11C4 9.94942 4.20693 8.90914 4.60896 7.93853C5.011 6.96793 5.60028 6.08601 6.34315 5.34315C7.08601 4.60028 7.96793 4.011 8.93853 3.60896C9.90914 3.20693 10.9494 3 12 3C13.0506 3 14.0909 3.20693 15.0615 3.60896C16.0321 4.011 16.914 4.60028 17.6569 5.34315C18.3997 6.08601 18.989 6.96793 19.391 7.93853C19.7931 8.90914 20 9.94942 20 11ZM18.6667 11C18.6667 9.23189 17.9643 7.5362 16.714 6.28595C15.4638 5.03571 13.7681 4.33333 12 4.33333C10.2319 4.33333 8.5362 5.03571 7.28595 6.28595C6.03571 7.5362 5.33333 9.23189 5.33333 11C5.33333 12.4773 6.15333 14.1933 7.42667 15.9107C8.672 17.588 10.2093 19.08 11.3373 20.0787C11.5188 20.2432 11.755 20.3343 12 20.3343C12.245 20.3343 12.4812 20.2432 12.6627 20.0787C13.7907 19.08 15.3293 17.5893 16.5733 15.9107C17.8467 14.1933 18.6667 12.4773 18.6667 11Z" fill="#555755"/>
</svg>
