<svg width="72" height="41" viewBox="0 0 72 41" fill="none" xmlns="http://www.w3.org/2000/svg">
<path d="M22.2608 0.00130794C18.7931 0.0620181 16.1434 1.53171 14.4431 4.50398C10.0131 12.2546 5.59079 20.0104 1.21494 27.7914C-1.67218 32.9214 0.796967 38.9848 6.3932 40.452C9.49705 41.2665 12.3532 40.629 14.7759 38.4561C19.3324 34.3708 24.1623 34.1836 29.0929 37.8288C30.3184 38.7344 31.5646 39.7386 32.9708 40.2547C36.2088 41.4436 39.2249 40.7631 41.8489 38.5371C43.7659 36.9105 45.8558 35.5673 48.4307 35.3194C51.6352 35.0108 54.4372 36.01 56.7747 38.2133C60.1418 41.3879 65.6296 41.7749 69.0457 39.0329C71.5354 37.032 72.4488 34.3683 71.796 31.3404C71.1046 28.1405 69.0018 26.0409 65.7122 25.3402C62.6057 24.6775 59.9276 25.5856 57.8506 27.9836C57.185 28.7526 56.6818 29.6532 56.0188 30.4221C54.6126 32.0436 52.5769 32.289 50.9669 31.0975C49.3157 29.8758 49.0009 27.9988 50.1748 26.1674C52.7369 22.1757 55.3815 18.2321 57.8713 14.1974C60.681 9.64663 59.022 3.90952 54.2772 1.34958C49.9272 -0.99788 44.4109 0.428809 41.7663 4.6684C38.0226 10.6686 34.3485 16.7067 30.6487 22.7322C29.9727 23.8351 29.1264 24.7356 27.6996 24.6167C25.6097 24.4447 24.5648 22.2971 25.6433 20.4429C26.9411 18.2118 28.2569 15.9908 29.6037 13.7901C31.98 9.91224 31.6446 5.42728 28.6749 2.48284C26.9204 0.750067 24.7506 -0.0366359 22.2608 0.00130794Z" fill="#1DCC9A"/>
</svg>
