<svg width="24" height="24" viewBox="0 0 24 24" fill="none" xmlns="http://www.w3.org/2000/svg">
<circle cx="11.9999" cy="8.45057" r="3.0326" fill="#A0A0A0"/>
<circle cx="11.9999" cy="8.45057" r="3.0326" fill="black" fill-opacity="0.2"/>
<path d="M7.07856 13.4103L5.41514 14.0839C4.5338 14.4409 3.95703 15.5037 3.95703 16.4545C3.95703 17.7437 5.00212 18.5819 6.29132 18.5819H17.723C19.0044 18.5819 20.0432 17.543 20.0432 16.2616C20.0432 15.3047 19.4558 14.446 18.564 14.0992L16.6224 13.3441C13.5489 12.1488 10.1351 12.1725 7.07856 13.4103Z" fill="#A0A0A0"/>
<path d="M7.07856 13.4103L5.41514 14.0839C4.5338 14.4409 3.95703 15.5037 3.95703 16.4545C3.95703 17.7437 5.00212 18.5819 6.29132 18.5819H17.723C19.0044 18.5819 20.0432 17.543 20.0432 16.2616C20.0432 15.3047 19.4558 14.446 18.564 14.0992L16.6224 13.3441C13.5489 12.1488 10.1351 12.1725 7.07856 13.4103Z" fill="black" fill-opacity="0.2"/>
</svg>
