<svg width="24" height="24" viewBox="0 0 24 24" fill="none" xmlns="http://www.w3.org/2000/svg">
<path d="M12.0002 7.39714V5.55599C12.0002 4.54336 11.1716 3.71484 10.159 3.71484H4.63558C3.62295 3.71484 2.79443 4.54336 2.79443 5.55599V18.444C2.79443 19.4566 3.62295 20.2852 4.63558 20.2852H19.3647C20.3774 20.2852 21.2059 19.4566 21.2059 18.444V9.23828C21.2059 8.22565 20.3774 7.39714 19.3647 7.39714H12.0002ZM6.47673 18.444H4.63558V16.6029H6.47673V18.444ZM6.47673 14.7617H4.63558V12.9206H6.47673V14.7617ZM6.47673 11.0794H4.63558V9.23828H6.47673V11.0794ZM6.47673 7.39714H4.63558V5.55599H6.47673V7.39714ZM10.159 18.444H8.31787V16.6029H10.159V18.444ZM10.159 14.7617H8.31787V12.9206H10.159V14.7617ZM10.159 11.0794H8.31787V9.23828H10.159V11.0794ZM10.159 7.39714H8.31787V5.55599H10.159V7.39714ZM18.4442 18.444H12.0002V16.6029H13.8413V14.7617H12.0002V12.9206H13.8413V11.0794H12.0002V9.23828H18.4442C18.9505 9.23828 19.3647 9.65254 19.3647 10.1589V17.5234C19.3647 18.0298 18.9505 18.444 18.4442 18.444ZM17.5236 11.0794H15.6825V12.9206H17.5236V11.0794ZM17.5236 14.7617H15.6825V16.6029H17.5236V14.7617Z" fill="#A0A0A0"/>
<path d="M12.0002 7.39714V5.55599C12.0002 4.54336 11.1716 3.71484 10.159 3.71484H4.63558C3.62295 3.71484 2.79443 4.54336 2.79443 5.55599V18.444C2.79443 19.4566 3.62295 20.2852 4.63558 20.2852H19.3647C20.3774 20.2852 21.2059 19.4566 21.2059 18.444V9.23828C21.2059 8.22565 20.3774 7.39714 19.3647 7.39714H12.0002ZM6.47673 18.444H4.63558V16.6029H6.47673V18.444ZM6.47673 14.7617H4.63558V12.9206H6.47673V14.7617ZM6.47673 11.0794H4.63558V9.23828H6.47673V11.0794ZM6.47673 7.39714H4.63558V5.55599H6.47673V7.39714ZM10.159 18.444H8.31787V16.6029H10.159V18.444ZM10.159 14.7617H8.31787V12.9206H10.159V14.7617ZM10.159 11.0794H8.31787V9.23828H10.159V11.0794ZM10.159 7.39714H8.31787V5.55599H10.159V7.39714ZM18.4442 18.444H12.0002V16.6029H13.8413V14.7617H12.0002V12.9206H13.8413V11.0794H12.0002V9.23828H18.4442C18.9505 9.23828 19.3647 9.65254 19.3647 10.1589V17.5234C19.3647 18.0298 18.9505 18.444 18.4442 18.444ZM17.5236 11.0794H15.6825V12.9206H17.5236V11.0794ZM17.5236 14.7617H15.6825V16.6029H17.5236V14.7617Z" fill="black" fill-opacity="0.2"/>
</svg>
