<svg width="24" height="24" viewBox="0 0 24 24" fill="none" xmlns="http://www.w3.org/2000/svg">
<g clip-path="url(#clip0_4843_27482)">
<path d="M12.9231 6.01921C13.9385 6.01921 14.7692 5.18844 14.7692 4.17306C14.7692 3.15767 13.9385 2.3269 12.9231 2.3269C11.9077 2.3269 11.0769 3.15767 11.0769 4.17306C11.0769 5.18844 11.9077 6.01921 12.9231 6.01921ZM9.50769 9.15767L6.92308 22.1731H8.86154L10.5231 14.7884L12.4615 16.6346V22.1731H14.3077V15.25L12.3692 13.4038L12.9231 10.6346C14.1231 12.0192 15.9692 12.9423 18 12.9423V11.0961C16.2462 11.0961 14.7692 10.1731 14.0308 8.88075L13.1077 7.40383C12.5908 6.58229 11.5569 6.24998 10.6615 6.62844L6 8.60383V12.9423H7.84615V9.80383L9.50769 9.15767Z" fill="#555755"/>
</g>
<defs>
<clipPath id="clip0_4843_27482">
<rect width="24" height="24" fill="white"/>
</clipPath>
</defs>
</svg>
