<svg width="18" height="18" viewBox="0 0 18 18" fill="none" xmlns="http://www.w3.org/2000/svg">
<path d="M11.25 6C11.25 7.24264 10.2426 8.25 8.99999 8.25C7.75735 8.25 6.74999 7.24264 6.74999 6C6.74999 4.75736 7.75735 3.75 8.99999 3.75C10.2426 3.75 11.25 4.75736 11.25 6Z" stroke="#111111" stroke-width="1.2" stroke-linecap="round"/>
<path d="M8.99999 9.375C12.0602 9.375 12.8501 11.8516 13.054 13.1302C13.1193 13.5393 12.7892 13.875 12.375 13.875H5.62499C5.21077 13.875 4.88071 13.5393 4.94594 13.1302C5.14986 11.8516 5.93981 9.375 8.99999 9.375Z" stroke="#111111" stroke-width="1.2" stroke-linecap="round"/>
<path d="M11.0106 4.5C11.159 4.24308 11.3802 4.03591 11.6462 3.90469C11.9123 3.77348 12.2113 3.72411 12.5055 3.76283C12.7996 3.80156 13.0757 3.92663 13.2987 4.12224C13.5218 4.31785 13.6818 4.57521 13.7586 4.86177C13.8354 5.14834 13.8254 5.45123 13.7301 5.73216C13.6347 6.01309 13.4582 6.25943 13.2228 6.44003C12.9875 6.62063 12.7038 6.72739 12.4078 6.74679C12.1117 6.76619 11.8166 6.69738 11.5597 6.54904M12.3097 8.25C14.1456 8.25 14.8809 10.0844 15.1571 11.1872C15.2649 11.6176 14.9246 12 14.4809 12H13.2228C12.8879 10.8423 12.4314 9.3854 10.5 9.06443C10.9335 8.58961 11.5197 8.25 12.3097 8.25Z" stroke="#111111" stroke-width="1.2" stroke-linecap="round"/>
<path d="M7.16655 4.5C7.01821 4.24308 6.79702 4.03591 6.53094 3.90469C6.26486 3.77348 5.96585 3.72411 5.67172 3.76283C5.37759 3.80156 5.10154 3.92663 4.87849 4.12224C4.65544 4.31785 4.4954 4.57521 4.41862 4.86177C4.34184 5.14834 4.35175 5.45123 4.44711 5.73216C4.54248 6.01309 4.719 6.25943 4.95437 6.44003C5.18973 6.62063 5.47337 6.72739 5.7694 6.74679C6.06544 6.76619 6.36058 6.69738 6.61751 6.54904M5.86751 8.25C6.65748 8.25 7.24367 8.58961 7.67719 9.06443C5.74578 9.3854 4.94148 10.8423 4.60653 12H3.69626C3.25254 12 2.91231 11.6176 3.0201 11.1872C3.29627 10.0844 4.03158 8.25 5.86751 8.25Z" stroke="#111111" stroke-width="1.2" stroke-linecap="round"/>
</svg>
