<svg width="10" height="10" viewBox="0 0 10 10" fill="none" xmlns="http://www.w3.org/2000/svg">
<path d="M4.99984 4.03736C5.22114 4.03736 5.44027 3.99377 5.64473 3.90909C5.84919 3.8244 6.03496 3.70027 6.19144 3.54378C6.34793 3.3873 6.47206 3.20153 6.55675 2.99707C6.64143 2.79261 6.68502 2.57348 6.68502 2.35218C6.68502 2.13088 6.64143 1.91174 6.55675 1.70728C6.47206 1.50283 6.34793 1.31706 6.19144 1.16057C6.03496 1.00409 5.84919 0.879958 5.64473 0.795269C5.44027 0.710581 5.22114 0.666992 4.99984 0.666992C4.5529 0.666992 4.12427 0.844538 3.80823 1.16057C3.4922 1.47661 3.31465 1.90524 3.31465 2.35218C3.31465 2.79912 3.4922 3.22775 3.80823 3.54378C4.12427 3.85982 4.5529 4.03736 4.99984 4.03736ZM0.666504 9.04477V9.33366H9.33317V9.04477C9.33317 7.96625 9.33317 7.42699 9.12324 7.01484C8.9386 6.65247 8.64399 6.35786 8.28162 6.17321C7.86947 5.96329 7.33021 5.96329 6.25169 5.96329H3.74799C2.66947 5.96329 2.13021 5.96329 1.71806 6.17321C1.35569 6.35786 1.06107 6.65247 0.87643 7.01484C0.666504 7.42699 0.666504 7.96625 0.666504 9.04477Z" stroke="black" stroke-width="1.15556" stroke-linecap="round" stroke-linejoin="round"/>
</svg>
