<svg width="24" height="24" viewBox="0 0 24 24" fill="none" xmlns="http://www.w3.org/2000/svg">
<path d="M6.23943 7.64183C6.0095 6.12467 7.08008 4.7596 8.71551 4.25871C9.00589 4.16983 9.31924 4.19509 9.59163 4.32932C9.86403 4.46356 10.0749 4.69666 10.1814 4.98107L10.7058 6.38115C10.7901 6.60637 10.8052 6.85163 10.7492 7.0855C10.6932 7.31936 10.5686 7.53116 10.3914 7.69373L8.83138 9.12458C8.7543 9.19516 8.69687 9.28454 8.66471 9.38398C8.63255 9.48342 8.62676 9.58951 8.64792 9.69186L8.6618 9.75462L8.70043 9.91213C8.73482 10.0449 8.78672 10.232 8.85974 10.4553C9.00458 10.8988 9.23571 11.4951 9.5797 12.0907C9.92368 12.6863 10.3244 13.1848 10.6358 13.5318C10.7981 13.7124 10.9676 13.8863 11.1439 14.0532L11.1922 14.0979C11.2702 14.167 11.3648 14.2147 11.4668 14.2364C11.5687 14.2581 11.6746 14.253 11.774 14.2216L13.7932 13.5861C14.0226 13.514 14.2684 13.5121 14.4989 13.5806C14.7294 13.6491 14.9342 13.7849 15.0871 13.9705L16.0424 15.1304C16.4407 15.6132 16.3936 16.3229 15.9356 16.7496C14.684 17.9161 12.9628 18.1557 11.7655 17.1925C10.2983 16.0085 9.06111 14.565 8.11565 12.9338C7.16325 11.3031 6.52673 9.50823 6.23943 7.64183ZM9.91222 9.77091L11.2073 8.58326C11.5617 8.25812 11.8109 7.83453 11.9229 7.3668C12.035 6.89907 12.0048 6.40854 11.8361 5.95811L11.3111 4.55803C11.0969 3.98601 10.6726 3.51721 10.1247 3.24719C9.57684 2.97717 8.9466 2.92626 8.36248 3.10485C6.33176 3.72704 4.70115 5.54774 5.04634 7.82227C5.35621 9.83905 6.04351 11.7793 7.07223 13.5415C8.09199 15.3005 9.42632 16.8572 11.0087 18.134C12.8041 19.5763 15.2023 19.0845 16.7587 17.6331C17.2043 17.2182 17.4747 16.6488 17.5148 16.0413C17.5548 15.4337 17.3615 14.8338 16.9742 14.364L16.0189 13.2041C15.7132 12.8326 15.3034 12.561 14.8422 12.424C14.381 12.287 13.8894 12.2909 13.4305 12.4353L11.7546 12.9627C11.6796 12.8856 11.6062 12.8069 11.5344 12.7268C11.1898 12.3458 10.8851 11.9307 10.6249 11.4878C10.3714 11.041 10.1641 10.5694 10.0064 10.0805C9.97286 9.97816 9.94147 9.87515 9.91222 9.77152" fill="#555755"/>
</svg>
