<svg width="24" height="24" viewBox="0 0 24 24" fill="none" xmlns="http://www.w3.org/2000/svg">
<path d="M17.6378 5.55665H16.8324V4.75123C16.8324 4.30824 16.4699 3.9458 16.027 3.9458C15.584 3.9458 15.2215 4.30824 15.2215 4.75123V5.55665H8.77811V4.75123C8.77811 4.30824 8.41567 3.9458 7.97268 3.9458C7.5297 3.9458 7.16726 4.30824 7.16726 4.75123V5.55665H6.36183C5.46781 5.55665 4.75903 6.28154 4.75903 7.16751L4.75098 18.4435C4.75098 19.3295 5.46781 20.0543 6.36183 20.0543H17.6378C18.5238 20.0543 19.2487 19.3295 19.2487 18.4435V7.16751C19.2487 6.28154 18.5238 5.55665 17.6378 5.55665ZM17.6378 17.6381C17.6378 18.081 17.2754 18.4435 16.8324 18.4435H7.16726C6.72427 18.4435 6.36183 18.081 6.36183 17.6381V9.58379H17.6378V17.6381ZM7.97268 11.1946H9.58354V12.8055H7.97268V11.1946ZM11.1944 11.1946H12.8052V12.8055H11.1944V11.1946ZM14.4161 11.1946H16.027V12.8055H14.4161V11.1946Z" fill="#A0A0A0"/>
<path d="M17.6378 5.55665H16.8324V4.75123C16.8324 4.30824 16.4699 3.9458 16.027 3.9458C15.584 3.9458 15.2215 4.30824 15.2215 4.75123V5.55665H8.77811V4.75123C8.77811 4.30824 8.41567 3.9458 7.97268 3.9458C7.5297 3.9458 7.16726 4.30824 7.16726 4.75123V5.55665H6.36183C5.46781 5.55665 4.75903 6.28154 4.75903 7.16751L4.75098 18.4435C4.75098 19.3295 5.46781 20.0543 6.36183 20.0543H17.6378C18.5238 20.0543 19.2487 19.3295 19.2487 18.4435V7.16751C19.2487 6.28154 18.5238 5.55665 17.6378 5.55665ZM17.6378 17.6381C17.6378 18.081 17.2754 18.4435 16.8324 18.4435H7.16726C6.72427 18.4435 6.36183 18.081 6.36183 17.6381V9.58379H17.6378V17.6381ZM7.97268 11.1946H9.58354V12.8055H7.97268V11.1946ZM11.1944 11.1946H12.8052V12.8055H11.1944V11.1946ZM14.4161 11.1946H16.027V12.8055H14.4161V11.1946Z" fill="black" fill-opacity="0.2"/>
</svg>
