<svg width="18" height="19" viewBox="0 0 18 19" fill="none" xmlns="http://www.w3.org/2000/svg">
<path d="M7.25 0.5C3.246 0.5 0 3.746 0 7.75C0 11.754 3.246 15 7.25 15C8.91425 15.0026 10.5283 14.4301 11.819 13.3795L16.7195 18.28C16.7887 18.3516 16.8714 18.4088 16.9629 18.4481C17.0544 18.4874 17.1529 18.5081 17.2524 18.5089C17.352 18.5098 17.4508 18.4908 17.543 18.4531C17.6351 18.4154 17.7189 18.3597 17.7893 18.2893C17.8597 18.2189 17.9154 18.1351 17.9531 18.043C17.9908 17.9508 18.0098 17.852 18.0089 17.7524C18.0081 17.6529 17.9874 17.5544 17.9481 17.4629C17.9088 17.3714 17.8516 17.2887 17.78 17.2195L12.88 12.319C13.9304 11.0282 14.5027 9.41419 14.5 7.75C14.5 3.746 11.254 0.5 7.25 0.5ZM1.5 7.75C1.5 4.5745 4.0745 2 7.25 2C10.4255 2 13 4.5745 13 7.75C13 10.9255 10.4255 13.5 7.25 13.5C4.0745 13.5 1.5 10.9255 1.5 7.75Z" fill="#111111"/>
</svg>
