<svg width="36" height="36" viewBox="0 0 36 36" fill="none" xmlns="http://www.w3.org/2000/svg">
<path d="M18 8.37207C18.333 8.37207 18.6525 8.50438 18.888 8.73989C19.1235 8.9754 19.2558 9.29482 19.2558 9.62788V19.6744C19.2558 20.0075 19.1235 20.3269 18.888 20.5624C18.6525 20.7979 18.333 20.9302 18 20.9302C17.6669 20.9302 17.3475 20.7979 17.112 20.5624C16.8765 20.3269 16.7442 20.0075 16.7442 19.6744V9.62788C16.7442 9.29482 16.8765 8.9754 17.112 8.73989C17.3475 8.50438 17.6669 8.37207 18 8.37207ZM18 26.3721C18.4441 26.3721 18.87 26.1957 19.184 25.8816C19.498 25.5676 19.6744 25.1417 19.6744 24.6977C19.6744 24.2536 19.498 23.8277 19.184 23.5137C18.87 23.1996 18.4441 23.0232 18 23.0232C17.5559 23.0232 17.13 23.1996 16.816 23.5137C16.502 23.8277 16.3256 24.2536 16.3256 24.6977C16.3256 25.1417 16.502 25.5676 16.816 25.8816C17.13 26.1957 17.5559 26.3721 18 26.3721Z" fill="#111111" fill-opacity="0.4"/>
<path fill-rule="evenodd" clip-rule="evenodd" d="M0 18C0 8.05898 8.05898 0 18 0C27.941 0 36 8.05898 36 18C36 27.941 27.941 36 18 36C8.05898 36 0 27.941 0 18ZM18 2.51163C13.8922 2.51163 9.9527 4.14343 7.04807 7.04807C4.14343 9.9527 2.51163 13.8922 2.51163 18C2.51163 22.1078 4.14343 26.0473 7.04807 28.9519C9.9527 31.8566 13.8922 33.4884 18 33.4884C22.1078 33.4884 26.0473 31.8566 28.9519 28.9519C31.8566 26.0473 33.4884 22.1078 33.4884 18C33.4884 13.8922 31.8566 9.9527 28.9519 7.04807C26.0473 4.14343 22.1078 2.51163 18 2.51163Z" fill="#111111" fill-opacity="0.4"/>
</svg>
