<svg width="28" height="28" viewBox="0 0 28 28" fill="none" xmlns="http://www.w3.org/2000/svg">
<path d="M19.7568 21.1464C20.1406 21.5301 20.7627 21.5301 21.1464 21.1464C21.5301 20.7627 21.5301 20.1405 21.1464 19.7568L15.4225 14.0329L21.2122 8.24316C21.5959 7.85945 21.5959 7.23733 21.2122 6.85362C20.8285 6.46991 20.2064 6.46991 19.8227 6.85362L14.0329 12.6434L8.17733 6.78778C7.79361 6.40407 7.17149 6.40407 6.78778 6.78778C6.40407 7.17149 6.40407 7.79361 6.78778 8.17732L12.6434 14.0329L6.85362 19.8227C6.46991 20.2064 6.46991 20.8285 6.85362 21.2122C7.23733 21.5959 7.85945 21.5959 8.24316 21.2122L14.0329 15.4225L19.7568 21.1464Z" fill="#111111"/>
</svg>
