<svg width="24" height="24" viewBox="0 0 24 24" fill="none" xmlns="http://www.w3.org/2000/svg">
<path fill-rule="evenodd" clip-rule="evenodd" d="M18.9956 19.9495C19.0755 19.9831 19.1612 20.0003 19.2477 20.0001C19.378 20.0001 19.5053 19.9609 19.6136 19.8876C19.7219 19.8143 19.8062 19.7101 19.8561 19.5882C19.9059 19.4664 19.919 19.3323 19.8936 19.2029C19.8682 19.0735 19.8055 18.9547 19.7134 18.8614L5.21946 4.18349C5.0949 4.06365 4.92905 3.99783 4.75725 4.00005C4.58546 4.00228 4.42132 4.07238 4.29983 4.19541C4.17835 4.31844 4.10912 4.48466 4.10693 4.65863C4.10473 4.83261 4.16972 5.00057 4.28806 5.12671L18.782 19.8046C18.843 19.8667 18.9156 19.9159 18.9956 19.9495ZM7.09009 15.8094C8.63089 16.8194 10.2783 17.3314 11.9867 17.3314C12.6973 17.3317 13.4051 17.2411 14.0933 17.0616C14.1209 17.0541 14.15 17.054 14.1776 17.0614C14.2053 17.0687 14.2305 17.0831 14.251 17.1033L15.1396 18.0032C15.1495 18.0132 15.1567 18.0256 15.1606 18.0393C15.1644 18.0529 15.1648 18.0673 15.1616 18.0811C15.1585 18.095 15.1519 18.1077 15.1424 18.1182C15.133 18.1288 15.1211 18.1367 15.1079 18.1412C14.1022 18.4853 13.0482 18.6625 11.9867 18.6658C10.0202 18.6658 8.13019 18.082 6.37404 16.9299C4.81429 15.9078 3.41472 14.4563 2.32726 12.7329C2.18607 12.5111 2.1132 12.2518 2.11789 11.9879C2.12258 11.724 2.20463 11.4675 2.35361 11.251C3.21954 9.99334 4.17194 8.91918 5.19805 8.04352C5.21387 8.03 5.23413 8.023 5.25481 8.02393C5.27549 8.02486 5.29506 8.03364 5.30964 8.04852L6.12986 8.8779C6.13787 8.88611 6.1441 8.89591 6.14818 8.90668C6.15225 8.91745 6.15408 8.92896 6.15354 8.94048C6.15299 8.952 6.1501 8.96328 6.14503 8.97361C6.13996 8.98394 6.13284 8.9931 6.1241 9.0005C5.15811 9.81278 4.25882 10.8202 3.43778 12.0115V12.0149C4.42435 13.5782 5.68722 14.8921 7.09009 15.8094ZM17.583 7.07653C19.1674 8.11274 20.581 9.56217 21.6705 11.2685C21.8082 11.4844 21.8818 11.7359 21.8825 11.993C21.8833 12.2501 21.8111 12.502 21.6746 12.7187C20.9024 13.9489 19.9493 15.0524 18.8483 15.9912C18.8325 16.0046 18.8123 16.0114 18.7917 16.0104C18.7711 16.0094 18.7516 16.0007 18.7371 15.9858L17.9177 15.1564C17.9097 15.1482 17.9034 15.1384 17.8993 15.1275C17.8953 15.1167 17.8934 15.1051 17.894 15.0936C17.8946 15.082 17.8976 15.0707 17.9027 15.0603C17.9079 15.05 17.9151 15.0408 17.9239 15.0334C18.9553 14.1687 19.8462 13.1453 20.5641 12.0007C20.5648 11.9997 20.5652 11.9986 20.5652 11.9974C20.5652 11.9962 20.5648 11.995 20.5641 11.994C19.5751 10.4462 18.2974 9.13351 16.8681 8.19947C15.3047 7.17494 13.6622 6.65662 11.9867 6.65662C11.2885 6.65713 10.5933 6.75093 9.91929 6.93559C9.89139 6.94348 9.86193 6.94378 9.83388 6.93646C9.80583 6.92914 9.78018 6.91445 9.75952 6.89389L8.87218 5.99529C8.86225 5.98532 8.85498 5.97297 8.85107 5.95937C8.84716 5.94578 8.84672 5.93141 8.84981 5.9176C8.8529 5.90379 8.85941 5.89101 8.86873 5.88045C8.87804 5.8699 8.88986 5.86192 8.90306 5.85726C9.89403 5.50499 10.9365 5.32413 11.9867 5.32227C13.8948 5.32227 15.8301 5.92899 17.583 7.07653ZM11.0578 7.85884C11.3671 7.7962 11.6833 7.76465 12.0005 7.76476C12.6366 7.76475 13.2646 7.89208 13.8377 8.13731C14.4109 8.38253 14.9145 8.73935 15.3112 9.18125C15.7078 9.62316 15.9874 10.1388 16.1291 10.6899C16.2707 11.241 16.2709 11.8133 16.1295 12.3644C16.1262 12.3783 16.1188 12.3912 16.108 12.4016C16.0972 12.412 16.0834 12.4197 16.0681 12.4237C16.0528 12.4277 16.0366 12.428 16.0211 12.4244C16.0057 12.4209 15.9916 12.4137 15.9804 12.4036L11.0137 7.99133C11.0023 7.98136 10.9942 7.96884 10.9903 7.95511C10.9863 7.94138 10.9866 7.92695 10.9911 7.91336C10.9956 7.89976 11.0042 7.88751 11.016 7.87791C11.0277 7.86831 11.0422 7.86172 11.0578 7.85884ZM7.97985 10.6314C7.9953 10.6349 8.00939 10.6421 8.02061 10.6522L12.9886 15.0669C13 15.0768 13.008 15.0894 13.012 15.1031C13.016 15.1168 13.0157 15.1312 13.0112 15.1448C13.0066 15.1584 12.998 15.1707 12.9863 15.1803C12.9746 15.1899 12.9601 15.1965 12.9445 15.1994C12.2456 15.3415 11.5175 15.3237 10.8285 15.1475C10.1395 14.9713 9.51208 14.6425 9.0051 14.192C8.49812 13.7415 8.12816 13.184 7.92989 12.5717C7.73162 11.9594 7.71153 11.3125 7.87151 10.6914C7.87475 10.6775 7.88217 10.6647 7.89298 10.6543C7.90378 10.6438 7.91756 10.6362 7.93286 10.6322C7.94816 10.6281 7.9644 10.6279 7.97985 10.6314Z" fill="#111111" fill-opacity="0.4"/>
</svg>
